<mxfile host="app.diagrams.net" modified="2022-06-15T12:22:55.490Z" agent="5.0 (Windows NT 10.0; Win64; x64) AppleWebKit/537.36 (KHTML, like Gecko) Chrome/102.0.5005.63 Safari/537.36 Edg/102.0.1245.39" etag="aJOVvV9eY4EoSU6Rj_2m" version="17.4.5" type="github">
  <diagram id="vjti06R-n6LDMxG2dLGq" name="第 1 页">
    <mxGraphModel dx="1550" dy="867" grid="0" gridSize="10" guides="1" tooltips="1" connect="1" arrows="1" fold="1" page="1" pageScale="1" pageWidth="827" pageHeight="1169" math="0" shadow="0">
      <root>
        <mxCell id="0" />
        <mxCell id="1" parent="0" />
        <mxCell id="RvTehWkE12cNgXnAuAUZ-3" style="edgeStyle=orthogonalEdgeStyle;rounded=0;orthogonalLoop=1;jettySize=auto;html=1;exitX=0.5;exitY=1;exitDx=0;exitDy=0;entryX=0.5;entryY=0;entryDx=0;entryDy=0;" parent="1" source="RvTehWkE12cNgXnAuAUZ-1" target="RvTehWkE12cNgXnAuAUZ-2" edge="1">
          <mxGeometry relative="1" as="geometry" />
        </mxCell>
        <mxCell id="RvTehWkE12cNgXnAuAUZ-1" value="开始" style="rounded=1;whiteSpace=wrap;html=1;" parent="1" vertex="1">
          <mxGeometry x="320" y="60" width="80" height="30" as="geometry" />
        </mxCell>
        <mxCell id="RvTehWkE12cNgXnAuAUZ-5" value="" style="edgeStyle=orthogonalEdgeStyle;rounded=0;orthogonalLoop=1;jettySize=auto;html=1;" parent="1" source="RvTehWkE12cNgXnAuAUZ-2" target="RvTehWkE12cNgXnAuAUZ-4" edge="1">
          <mxGeometry relative="1" as="geometry" />
        </mxCell>
        <mxCell id="RvTehWkE12cNgXnAuAUZ-2" value="SQL查询语句" style="shape=parallelogram;perimeter=parallelogramPerimeter;whiteSpace=wrap;html=1;fixedSize=1;" parent="1" vertex="1">
          <mxGeometry x="300" y="110" width="120" height="30" as="geometry" />
        </mxCell>
        <mxCell id="RvTehWkE12cNgXnAuAUZ-7" value="" style="edgeStyle=orthogonalEdgeStyle;rounded=0;orthogonalLoop=1;jettySize=auto;html=1;" parent="1" source="RvTehWkE12cNgXnAuAUZ-4" target="RvTehWkE12cNgXnAuAUZ-6" edge="1">
          <mxGeometry relative="1" as="geometry" />
        </mxCell>
        <mxCell id="RvTehWkE12cNgXnAuAUZ-4" value="根据字符串的匹配模式，将SQL查询&lt;br&gt;语句的输入属性值移除" style="rounded=0;whiteSpace=wrap;html=1;" parent="1" vertex="1">
          <mxGeometry x="260" y="160" width="200" height="40" as="geometry" />
        </mxCell>
        <mxCell id="RvTehWkE12cNgXnAuAUZ-13" value="" style="edgeStyle=orthogonalEdgeStyle;rounded=0;orthogonalLoop=1;jettySize=auto;html=1;" parent="1" source="RvTehWkE12cNgXnAuAUZ-6" target="RvTehWkE12cNgXnAuAUZ-12" edge="1">
          <mxGeometry relative="1" as="geometry">
            <Array as="points">
              <mxPoint x="210" y="255" />
            </Array>
          </mxGeometry>
        </mxCell>
        <mxCell id="RvTehWkE12cNgXnAuAUZ-16" value="否" style="edgeLabel;html=1;align=center;verticalAlign=middle;resizable=0;points=[];" parent="RvTehWkE12cNgXnAuAUZ-13" vertex="1" connectable="0">
          <mxGeometry x="-0.5793" y="-1" relative="1" as="geometry">
            <mxPoint x="31" y="-16" as="offset" />
          </mxGeometry>
        </mxCell>
        <mxCell id="RvTehWkE12cNgXnAuAUZ-18" value="" style="edgeStyle=orthogonalEdgeStyle;rounded=0;orthogonalLoop=1;jettySize=auto;html=1;" parent="1" source="RvTehWkE12cNgXnAuAUZ-6" target="RvTehWkE12cNgXnAuAUZ-17" edge="1">
          <mxGeometry relative="1" as="geometry" />
        </mxCell>
        <mxCell id="RvTehWkE12cNgXnAuAUZ-6" value="移除后的语句是否与不含参&lt;br&gt;数值的查询语句结构相同？" style="rhombus;whiteSpace=wrap;html=1;" parent="1" vertex="1">
          <mxGeometry x="255" y="220" width="210" height="70" as="geometry" />
        </mxCell>
        <mxCell id="RvTehWkE12cNgXnAuAUZ-50" style="edgeStyle=orthogonalEdgeStyle;rounded=0;orthogonalLoop=1;jettySize=auto;html=1;exitX=0.5;exitY=1;exitDx=0;exitDy=0;entryX=0;entryY=0.5;entryDx=0;entryDy=0;" parent="1" source="RvTehWkE12cNgXnAuAUZ-12" target="RvTehWkE12cNgXnAuAUZ-40" edge="1">
          <mxGeometry relative="1" as="geometry" />
        </mxCell>
        <mxCell id="RvTehWkE12cNgXnAuAUZ-12" value="有SQL注入" style="whiteSpace=wrap;html=1;" parent="1" vertex="1">
          <mxGeometry x="171" y="510" width="80" height="40" as="geometry" />
        </mxCell>
        <mxCell id="RvTehWkE12cNgXnAuAUZ-20" value="" style="edgeStyle=orthogonalEdgeStyle;rounded=0;orthogonalLoop=1;jettySize=auto;html=1;" parent="1" source="RvTehWkE12cNgXnAuAUZ-17" target="RvTehWkE12cNgXnAuAUZ-19" edge="1">
          <mxGeometry relative="1" as="geometry" />
        </mxCell>
        <mxCell id="RvTehWkE12cNgXnAuAUZ-17" value="对原有SQL语句进行分词，存储在列表L里" style="whiteSpace=wrap;html=1;" parent="1" vertex="1">
          <mxGeometry x="300" y="310" width="120" height="40" as="geometry" />
        </mxCell>
        <mxCell id="RvTehWkE12cNgXnAuAUZ-22" value="" style="edgeStyle=orthogonalEdgeStyle;rounded=0;orthogonalLoop=1;jettySize=auto;html=1;" parent="1" source="RvTehWkE12cNgXnAuAUZ-19" target="RvTehWkE12cNgXnAuAUZ-21" edge="1">
          <mxGeometry relative="1" as="geometry" />
        </mxCell>
        <mxCell id="RvTehWkE12cNgXnAuAUZ-19" value="遍历分词列表L" style="whiteSpace=wrap;html=1;" parent="1" vertex="1">
          <mxGeometry x="300" y="370" width="120" height="30" as="geometry" />
        </mxCell>
        <mxCell id="RvTehWkE12cNgXnAuAUZ-24" style="edgeStyle=orthogonalEdgeStyle;rounded=0;orthogonalLoop=1;jettySize=auto;html=1;exitX=0;exitY=0.5;exitDx=0;exitDy=0;" parent="1" source="RvTehWkE12cNgXnAuAUZ-21" edge="1">
          <mxGeometry relative="1" as="geometry">
            <mxPoint x="210" y="450" as="targetPoint" />
          </mxGeometry>
        </mxCell>
        <mxCell id="RvTehWkE12cNgXnAuAUZ-32" value="是" style="edgeLabel;html=1;align=center;verticalAlign=middle;resizable=0;points=[];" parent="RvTehWkE12cNgXnAuAUZ-24" vertex="1" connectable="0">
          <mxGeometry x="-0.2" y="1" relative="1" as="geometry">
            <mxPoint x="-12" y="-1" as="offset" />
          </mxGeometry>
        </mxCell>
        <mxCell id="RvTehWkE12cNgXnAuAUZ-37" value="" style="edgeStyle=orthogonalEdgeStyle;rounded=0;orthogonalLoop=1;jettySize=auto;html=1;" parent="1" target="RvTehWkE12cNgXnAuAUZ-36" edge="1">
          <mxGeometry relative="1" as="geometry">
            <mxPoint x="360" y="470" as="sourcePoint" />
          </mxGeometry>
        </mxCell>
        <mxCell id="RvTehWkE12cNgXnAuAUZ-44" value="否" style="edgeLabel;html=1;align=center;verticalAlign=middle;resizable=0;points=[];" parent="RvTehWkE12cNgXnAuAUZ-37" vertex="1" connectable="0">
          <mxGeometry x="-0.236" y="-1" relative="1" as="geometry">
            <mxPoint x="1" y="4" as="offset" />
          </mxGeometry>
        </mxCell>
        <mxCell id="RvTehWkE12cNgXnAuAUZ-21" value="该分词是否与任意&lt;br&gt;风险命令匹配？" style="rhombus;whiteSpace=wrap;html=1;" parent="1" vertex="1">
          <mxGeometry x="280" y="420" width="160" height="60" as="geometry" />
        </mxCell>
        <mxCell id="RvTehWkE12cNgXnAuAUZ-27" value="是" style="text;html=1;align=center;verticalAlign=middle;resizable=0;points=[];autosize=1;strokeColor=none;fillColor=none;" parent="1" vertex="1">
          <mxGeometry x="355" y="290" width="30" height="20" as="geometry" />
        </mxCell>
        <mxCell id="RvTehWkE12cNgXnAuAUZ-47" style="edgeStyle=orthogonalEdgeStyle;rounded=0;orthogonalLoop=1;jettySize=auto;html=1;entryX=1;entryY=0.5;entryDx=0;entryDy=0;exitX=1;exitY=0.5;exitDx=0;exitDy=0;" parent="1" source="RvTehWkE12cNgXnAuAUZ-36" target="RvTehWkE12cNgXnAuAUZ-19" edge="1">
          <mxGeometry relative="1" as="geometry">
            <Array as="points">
              <mxPoint x="480" y="530" />
              <mxPoint x="480" y="385" />
            </Array>
          </mxGeometry>
        </mxCell>
        <mxCell id="RvTehWkE12cNgXnAuAUZ-48" value="否" style="edgeLabel;html=1;align=center;verticalAlign=middle;resizable=0;points=[];" parent="RvTehWkE12cNgXnAuAUZ-47" vertex="1" connectable="0">
          <mxGeometry x="-0.7053" y="-1" relative="1" as="geometry">
            <mxPoint x="-13" y="-1" as="offset" />
          </mxGeometry>
        </mxCell>
        <mxCell id="RvTehWkE12cNgXnAuAUZ-52" style="edgeStyle=orthogonalEdgeStyle;rounded=0;orthogonalLoop=1;jettySize=auto;html=1;entryX=0.5;entryY=0;entryDx=0;entryDy=0;" parent="1" source="RvTehWkE12cNgXnAuAUZ-36" target="RvTehWkE12cNgXnAuAUZ-51" edge="1">
          <mxGeometry relative="1" as="geometry" />
        </mxCell>
        <mxCell id="RvTehWkE12cNgXnAuAUZ-55" value="是" style="edgeLabel;html=1;align=center;verticalAlign=middle;resizable=0;points=[];" parent="RvTehWkE12cNgXnAuAUZ-52" vertex="1" connectable="0">
          <mxGeometry x="-0.245" y="2" relative="1" as="geometry">
            <mxPoint x="-2" y="-9" as="offset" />
          </mxGeometry>
        </mxCell>
        <mxCell id="RvTehWkE12cNgXnAuAUZ-36" value="遍历结束？" style="rhombus;whiteSpace=wrap;html=1;" parent="1" vertex="1">
          <mxGeometry x="300" y="510" width="120" height="40" as="geometry" />
        </mxCell>
        <mxCell id="RvTehWkE12cNgXnAuAUZ-40" value="结束" style="rounded=1;whiteSpace=wrap;html=1;" parent="1" vertex="1">
          <mxGeometry x="321" y="640" width="80" height="30" as="geometry" />
        </mxCell>
        <mxCell id="RvTehWkE12cNgXnAuAUZ-53" style="edgeStyle=orthogonalEdgeStyle;rounded=0;orthogonalLoop=1;jettySize=auto;html=1;exitX=0.5;exitY=1;exitDx=0;exitDy=0;entryX=0.5;entryY=0;entryDx=0;entryDy=0;" parent="1" source="RvTehWkE12cNgXnAuAUZ-51" target="RvTehWkE12cNgXnAuAUZ-40" edge="1">
          <mxGeometry relative="1" as="geometry" />
        </mxCell>
        <mxCell id="RvTehWkE12cNgXnAuAUZ-51" value="无SQL注入" style="whiteSpace=wrap;html=1;" parent="1" vertex="1">
          <mxGeometry x="320" y="580" width="80" height="40" as="geometry" />
        </mxCell>
      </root>
    </mxGraphModel>
  </diagram>
</mxfile>
